C:\Users\r0593348\3dpredictsim\Results\Batchsim_tmt_linear_v2\Pog_s1_tmt_bCst_d02_k250_ig24_pas_GRF.mot
nRows=20
nColumns=19

name C:\Users\r0593348\3dpredictsim\Results\Batchsim_tmt_linear_v2\Pog_s1_tmt_bCst_d02_k250_ig24_pas_GRF.mot
datacolumns 19
datarows 20
range 0.0000000000 0.2098012930
endheader
time 	ground_force_vx	ground_force_vy	ground_force_vz	ground_force_px	ground_force_py	ground_force_pz	1_ground_force_vx	1_ground_force_vy	1_ground_force_vz	1_ground_force_px	1_ground_force_py	1_ground_force_pz	ground_torque_x	ground_torque_y	ground_torque_z	1_ground_torque_x	1_ground_torque_y	1_ground_torque_z
        0.0000000000	      -66.7584744240	       55.4007904523	       21.6390957831	        0.1670534615	        0.0000000000	        0.0445359804	       98.4972507240	      414.6304038785	        1.7313794112	       -0.3526372542	        0.0000000000	       -0.0423444377	        0.0000000000	        0.0000000000	        0.0000000000	        0.0000000000	        0.0000000000	        0.0000000000	
        0.0110421733	     -122.3638162879	      134.2007400576	       59.0724528151	        0.1740499795	        0.0000000000	        0.0426726703	       58.3303593080	      301.0106589401	       -4.9466997493	       -0.3321829550	        0.0000000000	       -0.0383502754	        0.0000000000	        0.0000000000	        0.0000000000	        0.0000000000	        0.0000000000	        0.0000000000	
        0.0220843466	      -72.1654263036	      294.4455487398	       24.3913487561	        0.1798414950	        0.0000000000	        0.0406360815	       23.6393476127	      199.5417533486	       -9.5729730292	       -0.3005847507	        0.0000000000	       -0.0309501323	        0.0000000000	        0.0000000000	        0.0000000000	        0.0000000000	        0.0000000000	        0.0000000000	
        0.0331265200	      -73.9702355746	      500.0047796175	        0.6841962945	        0.1850079394	        0.0000000000	        0.0410970921	        3.2850875645	      148.7609275084	      -11.8734751101	       -0.2787757623	        0.0000000000	       -0.0237155102	        0.0000000000	        0.0000000000	        0.0000000000	        0.0000000000	        0.0000000000	        0.0000000000	
        0.0441686933	     -112.2331845136	      775.0307656478	      -13.6111560474	        0.1955319520	        0.0000000000	        0.0439441077	       -0.6202912870	      118.0041047527	      -10.7662254834	       -0.2790269457	        0.0000000000	       -0.0239675860	        0.0000000000	        0.0000000000	        0.0000000000	        0.0000000000	        0.0000000000	        0.0000000000	
        0.0552108666	     -144.4421439896	      952.8749644889	      -18.9388705409	        0.2026169748	        0.0000000000	        0.0458474321	       -3.1314289283	       77.2258400081	      -10.0906647946	       -0.2784816861	        0.0000000000	       -0.0240811911	        0.0000000000	        0.0000000000	        0.0000000000	        0.0000000000	        0.0000000000	        0.0000000000	
        0.0662530399	     -148.0132443043	      990.0548229685	      -20.4487181451	        0.2075066784	        0.0000000000	        0.0470207345	       -7.1743902104	       31.8959022624	       -6.3722441227	       -0.2785538551	        0.0000000000	       -0.0241656572	        0.0000000000	        0.0000000000	        0.0000000000	        0.0000000000	        0.0000000000	        0.0000000000	
        0.0772952132	     -136.3597877230	      949.3222761455	      -20.6869934203	        0.2113258422	        0.0000000000	        0.0477927813	        0.0785586620	       -0.0787334830	        0.0051373999	        0.0000000000	        0.0000000000	        0.0000000000	        0.0000000000	        0.0000000000	        0.0000000000	        0.0000000000	        0.0000000000	        0.0000000000	
        0.0883373865	     -118.6118471391	      882.8914777180	      -19.7049979740	        0.2152042770	        0.0000000000	        0.0484014966	        0.0000387810	       -0.0000316829	       -0.0000014130	        0.0000000000	        0.0000000000	        0.0000000000	        0.0000000000	        0.0000000000	        0.0000000000	        0.0000000000	        0.0000000000	        0.0000000000	
        0.0993795599	     -103.7334388843	      825.1690945954	      -18.7223480696	        0.2197894622	        0.0000000000	        0.0491176316	        0.0000359993	       -0.0000259414	       -0.0000018265	        0.0000000000	        0.0000000000	        0.0000000000	        0.0000000000	        0.0000000000	        0.0000000000	        0.0000000000	        0.0000000000	        0.0000000000	
        0.1104217332	      -95.1281057325	      784.0182080677	      -18.2530854369	        0.2255414200	        0.0000000000	        0.0494789610	        0.0005239163	       -0.0003388601	       -0.0000304016	        0.0000000000	        0.0000000000	        0.0000000000	        0.0000000000	        0.0000000000	        0.0000000000	        0.0000000000	        0.0000000000	        0.0000000000	
        0.1214639065	      -85.4469624840	      745.0967244465	      -17.6098180950	        0.2313890949	        0.0000000000	        0.0495739274	        0.0068425348	       -0.0040568435	       -0.0004211106	        0.0000000000	        0.0000000000	        0.0000000000	        0.0000000000	        0.0000000000	        0.0000000000	        0.0000000000	        0.0000000000	        0.0000000000	
        0.1325060798	      -76.2537992800	      707.7182857168	      -17.4538981146	        0.2370356319	        0.0000000000	        0.0495625720	       -0.0402346537	        0.0222255272	        0.0025543753	        0.0000000000	        0.0000000000	        0.0000000000	        0.0000000000	        0.0000000000	        0.0000000000	        0.0000000000	        0.0000000000	        0.0000000000	
        0.1435482531	      -68.0978125956	      676.3958763468	      -17.0517293974	        0.2424750787	        0.0000000000	        0.0494279122	       -0.0278542540	        0.0144835636	        0.0018040785	        0.0000000000	        0.0000000000	        0.0000000000	        0.0000000000	        0.0000000000	        0.0000000000	        0.0000000000	        0.0000000000	        0.0000000000	
        0.1545904264	      -60.0189046193	      652.1524840636	      -16.9717088624	        0.2477222594	        0.0000000000	        0.0492676080	       -0.0195188394	        0.0096290264	        0.0012781487	        0.0000000000	        0.0000000000	        0.0000000000	        0.0000000000	        0.0000000000	        0.0000000000	        0.0000000000	        0.0000000000	        0.0000000000	
        0.1656325998	      -53.6406712339	      633.7585665825	      -17.3407200686	        0.2527445384	        0.0000000000	        0.0490909005	       -0.0173491326	        0.0081735494	        0.0011424402	        0.0000000000	        0.0000000000	        0.0000000000	        0.0000000000	        0.0000000000	        0.0000000000	        0.0000000000	        0.0000000000	        0.0000000000	
        0.1766747731	      -48.6511100337	      620.3429956323	      -17.9022555521	        0.2574429107	        0.0000000000	        0.0488924774	       -0.0201720856	        0.0091264838	        0.0013364792	        0.0000000000	        0.0000000000	        0.0000000000	        0.0000000000	        0.0000000000	        0.0000000000	        0.0000000000	        0.0000000000	        0.0000000000	
        0.1877169464	      -44.3937741675	      610.6622893523	      -18.5182998694	        0.2618230273	        0.0000000000	        0.0486826220	       -0.0295535252	        0.0129088346	        0.0019732852	        0.0000000000	        0.0000000000	        0.0000000000	        0.0000000000	        0.0000000000	        0.0000000000	        0.0000000000	        0.0000000000	        0.0000000000	
        0.1987591197	      -40.1573850037	      603.2524949334	      -19.5142466898	        0.2659211475	        0.0000000000	        0.0484518048	       -0.0511692661	        0.0216832930	        0.0034575798	        0.0000000000	        0.0000000000	        0.0000000000	        0.0000000000	        0.0000000000	        0.0000000000	        0.0000000000	        0.0000000000	        0.0000000000	
        0.2098012930	      -35.9759937878	      596.9238293660	      -20.3642351850	        0.2697768293	        0.0000000000	        0.0482111984	       -0.0973997523	        0.0402163437	        0.0066861456	        0.0000000000	        0.0000000000	        0.0000000000	        0.0000000000	        0.0000000000	        0.0000000000	        0.0000000000	        0.0000000000	        0.0000000000	
